<svg width="134" height="116" viewBox="0 0 134 116" fill="none" xmlns="http://www.w3.org/2000/svg">
<g clip-path="url(#clip0_5_2770)">
<rect width="74.7651" height="74.7651" transform="translate(31.0034 24.762) rotate(1.71102)" fill="white"/>
<path fill-rule="evenodd" clip-rule="evenodd" d="M66.137 100.61C58.7467 100.389 51.5878 97.9819 45.5657 93.6926C39.5436 89.4032 34.9286 83.4244 32.3045 76.5122C29.6803 69.6 29.1647 62.0648 30.823 54.8596C32.4813 47.6544 36.2389 41.1028 41.6208 36.0332C47.0026 30.9636 53.7668 27.6037 61.0581 26.3784C68.3495 25.1532 75.8405 26.1176 82.5837 29.1497C89.3269 32.1818 95.0196 37.1454 98.9419 43.4128C102.864 49.6802 104.84 56.97 104.619 64.3603C104.323 74.2703 100.102 83.6569 92.8855 90.455C85.6688 97.2532 76.047 100.906 66.137 100.61ZM45.8449 71.0381C45.0656 70.2018 44.6477 69.0918 44.6818 67.9491C44.716 66.8065 45.1994 65.7234 46.0272 64.935L48.2922 62.8136C48.6775 62.4473 49.1325 62.1622 49.6301 61.9751C50.1278 61.7881 50.658 61.7029 51.1892 61.7247C51.7204 61.7465 52.2418 61.8748 52.7225 62.102C53.2031 62.3292 53.6333 62.6507 53.9873 63.0473L57.7529 67.1952C57.9323 67.3962 58.1509 67.5586 58.3951 67.6724C58.6394 67.7862 58.9043 67.849 59.1736 67.857C59.443 67.8651 59.7112 67.8182 59.9618 67.7192C60.2124 67.6201 60.4402 67.4711 60.6313 67.2811L81.045 47.4585C81.4249 47.081 81.8771 46.7843 82.3745 46.5861C82.8719 46.388 83.4043 46.2925 83.9396 46.3053C84.4749 46.3181 85.0021 46.4391 85.4894 46.6609C85.9768 46.8827 86.4142 47.2008 86.7755 47.596L88.8471 49.8195C89.6068 50.652 90.0128 51.7474 89.9792 52.874C89.9455 54.0005 89.4748 55.0698 88.6668 55.8554L61.5768 81.7878C61.1985 82.1567 60.7504 82.4463 60.2588 82.6397C59.7671 82.8331 59.2418 82.9264 58.7136 82.9141C58.1854 82.9018 57.665 82.7842 57.1829 82.5681C56.7008 82.352 56.2667 82.0419 55.906 81.6558L45.8449 71.0381Z" fill="#0067FB"/>
<path d="M97.7704 36.4601C99.5552 36.5134 101.045 35.1097 101.099 33.325C101.152 31.5402 99.7483 30.0501 97.9635 29.9968C96.1787 29.9435 94.6887 31.3471 94.6353 33.1319C94.582 34.9167 95.9857 36.4067 97.7704 36.4601Z" fill="#0067FB"/>
</g>
<path d="M73.6158 114.176C75.1775 114.222 76.4813 112.994 76.5279 111.433C76.5746 109.871 75.3464 108.567 73.7847 108.52C72.223 108.474 70.9192 109.702 70.8726 111.264C70.8259 112.825 72.0541 114.129 73.6158 114.176Z" fill="#0067FB"/>
<path d="M98.9869 104.017C100.102 104.05 101.034 103.173 101.067 102.058C101.1 100.942 100.223 100.011 99.1075 99.9776C97.9921 99.9443 97.0608 100.822 97.0274 101.937C96.9941 103.053 97.8714 103.984 98.9869 104.017Z" fill="#0067FB"/>
<path d="M36.3013 104.571C38.0861 104.624 39.5762 103.22 39.6295 101.435C39.6828 99.6506 38.2792 98.1606 36.4944 98.1072C34.7096 98.0539 33.2195 99.4576 33.1662 101.242C33.1129 103.027 34.5165 104.517 36.3013 104.571Z" fill="#0067FB"/>
<path d="M10.8858 82.3826C12.559 82.4326 13.956 81.1167 14.0059 79.4434C14.0559 77.7702 12.74 76.3732 11.0668 76.3233C9.39354 76.2733 7.99659 77.5892 7.94661 79.2624C7.89663 80.9357 9.21253 82.3326 10.8858 82.3826Z" fill="#0067FB"/>
<path d="M109.496 90.5844C110.835 90.6243 111.952 89.5716 111.992 88.233C112.032 86.8944 110.979 85.7769 109.641 85.7369C108.302 85.6969 107.185 86.7496 107.145 88.0882C107.105 89.4268 108.157 90.5444 109.496 90.5844Z" fill="#0067FB"/>
<path d="M127.819 86.2799C129.604 86.3332 131.094 84.9296 131.147 83.1448C131.2 81.36 129.797 79.8699 128.012 79.8166C126.227 79.7633 124.737 81.1669 124.684 82.9517C124.63 84.7365 126.034 86.2266 127.819 86.2799Z" fill="#0067FB"/>
<path d="M111.751 69.223C112.867 69.2563 113.798 68.379 113.832 67.2635C113.865 66.148 112.988 65.2167 111.872 65.1834C110.757 65.1501 109.825 66.0274 109.792 67.1429C109.759 68.2583 110.636 69.1896 111.751 69.223Z" fill="#0067FB"/>
<path d="M109.997 60.2756C111.782 60.3289 113.272 58.9253 113.325 57.1405C113.379 55.3557 111.975 53.8656 110.19 53.8123C108.405 53.759 106.915 55.1626 106.862 56.9474C106.809 58.7322 108.212 60.2223 109.997 60.2756Z" fill="#0067FB"/>
<path d="M121.338 46.059C122.454 46.0923 123.385 45.2151 123.418 44.0996C123.452 42.9841 122.574 42.0528 121.459 42.0195C120.343 41.9861 119.412 42.8634 119.379 43.9789C119.346 45.0944 120.223 46.0257 121.338 46.059Z" fill="#0067FB"/>
<path d="M117.16 37.0393C118.945 37.0926 120.435 35.6889 120.488 33.9042C120.542 32.1194 119.138 30.6293 117.353 30.576C115.568 30.5227 114.078 31.9263 114.025 33.7111C113.972 35.4959 115.375 36.986 117.16 37.0393Z" fill="#0067FB"/>
<path d="M8.12103 100.494C9.45962 100.534 10.5772 99.4815 10.6172 98.1429C10.6572 96.8043 9.60443 95.6867 8.26584 95.6467C6.92724 95.6068 5.80969 96.6595 5.7697 97.9981C5.72971 99.3367 6.78244 100.454 8.12103 100.494Z" fill="#0067FB"/>
<path d="M102.124 26.0779C103.685 26.1245 104.989 24.8964 105.036 23.3347C105.082 21.773 103.854 20.4692 102.293 20.4225C100.731 20.3759 99.4271 21.604 99.3804 23.1657C99.3338 24.7274 100.562 26.0312 102.124 26.0779Z" fill="#0067FB"/>
<path d="M105.774 18.9092C107.448 18.9592 108.845 17.6433 108.895 15.9701C108.945 14.2968 107.629 12.8999 105.955 12.8499C104.282 12.7999 102.885 14.1158 102.835 15.7891C102.785 17.4623 104.101 18.8593 105.774 18.9092Z" fill="#0067FB"/>
<path d="M76.8256 6.72365C77.9411 6.75698 78.8724 5.8797 78.9057 4.76421C78.939 3.64872 78.0617 2.71742 76.9462 2.6841C75.8307 2.65078 74.8994 3.52805 74.8661 4.64354C74.8328 5.75903 75.7101 6.69033 76.8256 6.72365Z" fill="#0067FB"/>
<path d="M38.4797 18.112C39.5952 18.1453 40.5265 17.268 40.5598 16.1525C40.5932 15.0371 39.7159 14.1058 38.6004 14.0724C37.4849 14.0391 36.5536 14.9164 36.5203 16.0319C36.487 17.1474 37.3642 18.0787 38.4797 18.112Z" fill="#0067FB"/>
<path d="M51.2253 24.5575C52.787 24.6041 54.0908 23.3759 54.1374 21.8143C54.1841 20.2526 52.9559 18.9487 51.3942 18.9021C49.8325 18.8554 48.5287 20.0836 48.4821 21.6453C48.4354 23.207 49.6636 24.5108 51.2253 24.5575Z" fill="#0067FB"/>
<path d="M27.0121 23.0255C28.3507 23.0655 29.4682 22.0128 29.5082 20.6742C29.5482 19.3356 28.4955 18.2181 27.1569 18.1781C25.8183 18.1381 24.7007 19.1908 24.6608 20.5294C24.6208 21.868 25.6735 22.9855 27.0121 23.0255Z" fill="#0067FB"/>
<path d="M18.1796 7.39768C19.9644 7.451 21.4545 6.04736 21.5078 4.26257C21.5611 2.47779 20.1575 0.98771 18.3727 0.934395C16.5879 0.88108 15.0978 2.28472 15.0445 4.0695C14.9912 5.85429 16.3948 7.34437 18.1796 7.39768Z" fill="#0067FB"/>
<path d="M5.6412 41.39C7.31444 41.44 8.71139 40.1241 8.76137 38.4508C8.81135 36.7776 7.49545 35.3807 5.82221 35.3307C4.14897 35.2807 2.75202 36.5966 2.70204 38.2698C2.65206 39.9431 3.96797 41.34 5.6412 41.39Z" fill="#0067FB"/>
<path d="M19.276 51.9052C20.3915 51.9385 21.3228 51.0613 21.3561 49.9458C21.3894 48.8303 20.5122 47.899 19.3967 47.8656C18.2812 47.8323 17.3499 48.7096 17.3166 49.8251C17.2832 50.9406 18.1605 51.8719 19.276 51.9052Z" fill="#0067FB"/>
<path d="M22.7122 72.2236C24.497 72.277 25.9871 70.8733 26.0404 69.0885C26.0937 67.3037 24.6901 65.8137 22.9053 65.7604C21.1205 65.707 19.6304 67.1107 19.5771 68.8955C19.5238 70.6802 20.9274 72.1703 22.7122 72.2236Z" fill="#0067FB"/>
<path d="M70.0848 15.8216C71.2003 15.8549 72.1316 14.9776 72.1649 13.8621C72.1982 12.7466 71.3209 11.8153 70.2054 11.782C69.09 11.7487 68.1587 12.6259 68.1253 13.7414C68.092 14.8569 68.9693 15.7882 70.0848 15.8216Z" fill="#0067FB"/>
<path d="M76.6986 24.5098C78.0372 24.5498 79.1548 23.497 79.1947 22.1584C79.2347 20.8198 78.182 19.7023 76.8434 19.6623C75.5048 19.6223 74.3873 20.675 74.3473 22.0136C74.3073 23.3522 75.36 24.4698 76.6986 24.5098Z" fill="#0067FB"/>
<defs>
<clipPath id="clip0_5_2770">
<rect width="74.7651" height="74.7651" fill="white" transform="translate(31.0034 24.762) rotate(1.71102)"/>
</clipPath>
</defs>
</svg>
