<svg id="smartphone" viewBox="0 0 24 24" xmlns="http://www.w3.org/2000/svg"><path d="m13 19.75h-2c-.41 0-.75-.34-.75-.75s.34-.75.75-.75h2c.41 0 .75.34.75.75s-.34.75-.75.75z"/><path d="m16.5 22.75h-9c-1.52 0-2.75-1.23-2.75-2.75v-16c0-1.52 1.23-2.75 2.75-2.75h9c1.52 0 2.75 1.23 2.75 2.75v16c0 1.52-1.23 2.75-2.75 2.75zm-9-20c-.69 0-1.25.56-1.25 1.25v16c0 .69.56 1.25 1.25 1.25h9c.69 0 1.25-.56 1.25-1.25v-16c0-.69-.56-1.25-1.25-1.25z"/><path d="m14.38 4h-4.76c-.38 0-.73-.21-.89-.55l-.72-1.45h8s-.72 1.45-.72 1.45c-.17.34-.52.55-.89.55z"/></svg>