<svg height="512" viewBox="0 0 32 32" width="512" xmlns="http://www.w3.org/2000/svg"><g id="Browser"><path d="m16 2a14 14 0 1 0 14 14 14.02 14.02 0 0 0 -14-14zm10.91 9h-4.62a17.7159 17.7159 0 0 0 -3.64-6.7 12.0022 12.0022 0 0 1 8.26 6.7zm-5.91 5a15.5719 15.5719 0 0 1 -.29 3h-9.42a15.6622 15.6622 0 0 1 0-6h9.42a15.5719 15.5719 0 0 1 .29 3zm-5 11.6a15.908 15.908 0 0 1 -4.2-6.6h8.4a15.908 15.908 0 0 1 -4.2 6.6zm0-23.2a15.908 15.908 0 0 1 4.2 6.6h-8.4a15.908 15.908 0 0 1 4.2-6.6zm-2.65-.1a17.7159 17.7159 0 0 0 -3.64 6.7h-4.62a12.0022 12.0022 0 0 1 8.26-6.7zm-9.35 11.7a11.9161 11.9161 0 0 1 .38-3h4.88a17.4377 17.4377 0 0 0 0 6h-4.88a11.9161 11.9161 0 0 1 -.38-3zm1.09 5h4.62a17.7159 17.7159 0 0 0 3.64 6.7 12.0022 12.0022 0 0 1 -8.26-6.7zm13.56 6.7a17.7159 17.7159 0 0 0 3.64-6.7h4.62a12.0022 12.0022 0 0 1 -8.26 6.7zm4.09-8.7a17.4377 17.4377 0 0 0 0-6h4.88a12.0321 12.0321 0 0 1 0 6z"/></g></svg>