<svg clip-rule="evenodd" fill-rule="evenodd" height="512" stroke-linejoin="round" stroke-miterlimit="2" viewBox="0 0 24 24" width="512" xmlns="http://www.w3.org/2000/svg"><g id="Icon"><path d="m9.207 6.562c1.278-1.127 2.956-1.812 4.793-1.812 4.001 0 7.25 3.249 7.25 7.25s-3.249 7.25-7.25 7.25c-1.837 0-3.515-.685-4.793-1.812-.31-.274-.785-.245-1.059.066-.274.31-.244.784.066 1.058 1.543 1.362 3.569 2.188 5.786 2.188 4.829 0 8.75-3.921 8.75-8.75s-3.921-8.75-8.75-8.75c-2.217 0-4.243.826-5.786 2.188-.31.274-.34.748-.066 1.058.274.311.749.34 1.059.066z"/><path d="m12.85 7.6v4c0 .199.079.39.22.53l3.2 3.2c.292.293.768.293 1.06 0 .293-.292.293-.768 0-1.06l-2.98-2.981v-3.689c0-.414-.336-.75-.75-.75s-.75.336-.75.75z"/><path d="m2 9.25h6c.414 0 .75-.336.75-.75s-.336-.75-.75-.75h-6c-.414 0-.75.336-.75.75s.336.75.75.75z"/><path d="m3 12.75h6c.414 0 .75-.336.75-.75s-.336-.75-.75-.75h-6c-.414 0-.75.336-.75.75s.336.75.75.75z"/><path d="m4 16.25h6c.414 0 .75-.336.75-.75s-.336-.75-.75-.75h-6c-.414 0-.75.336-.75.75s.336.75.75.75z"/></g></svg>