<?xml version="1.0" encoding="UTF-8"?>
<svg xmlns="http://www.w3.org/2000/svg" xmlns:xlink="http://www.w3.org/1999/xlink" version="1.1" id="Capa_1" x="0px" y="0px" viewBox="0 0 512 512" style="enable-background:new 0 0 512 512;" xml:space="preserve" width="512" height="512">
<g>
	<g>
		<path style="fill:none;stroke:#000000;stroke-width:30;stroke-linecap:round;stroke-linejoin:round;stroke-miterlimit:10;" d="&#10;&#9;&#9;&#9;M277.603,277.603l57.967,57.967l67.393-67.393l-21.603-21.603c-11.931-11.931-11.931-31.274,0-43.205l0,0&#10;&#9;&#9;&#9;c11.931-11.931,31.274-11.931,43.205,0l21.603,21.603l46.322-46.322c6.013-6.013,6.013-15.762,0-21.775l-47.8-47.8l21.153-21.153&#10;&#9;&#9;&#9;c11.771-11.771,12.492-30.95,1.048-43.039c-11.873-12.543-31.671-12.748-43.804-0.615l-21.603,21.603L355.126,19.51&#10;&#9;&#9;&#9;c-6.013-6.013-15.762-6.013-21.775,0l-46.322,46.322L265.426,44.23c-11.931-11.931-31.274-11.931-43.205,0l0,0&#10;&#9;&#9;&#9;c-11.931,11.931-11.931,31.274,0,43.205l21.603,21.603l-67.393,67.393l57.967,57.967"/>
	</g>
	<g>
		<path style="fill:none;stroke:#000000;stroke-width:30;stroke-linecap:round;stroke-linejoin:round;stroke-miterlimit:10;" d="&#10;&#9;&#9;&#9;M235.118,235.118l21.153-21.153c11.771-11.771,30.95-12.492,43.039-1.048c12.543,11.873,12.748,31.671,0.615,43.804&#10;&#9;&#9;&#9;l-21.603,21.603l57.247,57.247l-57.21,57.21l21.603,21.603c11.931,11.931,11.931,31.274,0,43.205l0,0&#10;&#9;&#9;&#9;c-11.931,11.931-31.274,11.931-43.205,0l-21.603-21.603l-56.506,56.506c-6.013,6.013-15.762,6.013-21.775,0l-47.08-47.08&#10;&#9;&#9;&#9;l21.153-21.153c11.771-11.771,12.492-30.95,1.048-43.039c-11.873-12.543-31.671-12.748-43.804-0.616l-21.603,21.603l-47.08-47.08&#10;&#9;&#9;&#9;c-6.013-6.013-6.013-15.762,0-21.775l56.506-56.506l21.603,21.603c11.931,11.931,31.274,11.931,43.205,0l0,0&#10;&#9;&#9;&#9;c11.931-11.931,11.931-31.274,0-43.205l-21.603-21.603l57.21-57.21L235.118,235.118z"/>
	</g>
</g>















</svg>
