<svg xmlns="http://www.w3.org/2000/svg" viewBox="0 0 47.07 9.4" fill="#0067FB" width="300px">
  <g>
    <path d="M5,4.88V7.76a.64.64,0,0,1-.63.64.66.66,0,0,1-.65-.64V4.88a1.23,1.23,0,0,0-2.45,0V7.76s0,.06,0,.08v0s0,0,0,.07V8a.7.7,0,0,1-.6.39l-.12,0A.65.65,0,0,1,0,7.76V4.92H0V3.05A.63.63,0,0,1,.64,2.4a.59.59,0,0,1,.57.36A2.53,2.53,0,0,1,2.5,2.4a2.48,2.48,0,0,1,1.88.83A2.44,2.44,0,0,1,6.26,2.4,2.5,2.5,0,0,1,8.75,4.92V7.76a.64.64,0,0,1-.63.64.65.65,0,0,1-.65-.64V4.92A1.23,1.23,0,0,0,6.26,3.68,1.25,1.25,0,0,0,5,4.88Z"></path>
    <path d="M12,7.52a3,3,0,0,1-.82-2.11A3.12,3.12,0,0,1,12,3.31,2.83,2.83,0,0,1,14,2.4a2.66,2.66,0,0,1,2,.91,3,3,0,0,1,.84,2.1A2.9,2.9,0,0,1,16,7.52a2.66,2.66,0,0,1-2,.91A2.83,2.83,0,0,1,12,7.52Zm.48-2.11a1.94,1.94,0,0,0,.44,1.27A1.6,1.6,0,0,0,14,7.12a1.55,1.55,0,0,0,1.1-.44,1.86,1.86,0,0,0,.47-1.27,1.83,1.83,0,0,0-.47-1.25A1.7,1.7,0,0,0,14,3.71a1.75,1.75,0,0,0-1.15.45A1.9,1.9,0,0,0,12.44,5.41Z"></path>
    <path d="M29.29,5.4a3,3,0,0,1,2.93-3,2.87,2.87,0,0,1,2.89,2.78v.06a.37.37,0,0,1,0,.11.58.58,0,0,1-.63.48H30.66a1.55,1.55,0,0,0,.41.79,1.86,1.86,0,0,0,1.15.54,1.89,1.89,0,0,0,1.24-.3.69.69,0,0,1,.9,0,.54.54,0,0,1,0,.78,3,3,0,0,1-5.07-2.2Zm1.31-.59H34a2,2,0,0,0-1.77-1.27A1.67,1.67,0,0,0,30.6,4.81Z"></path>
    <path d="M42,4.89V7.76a.63.63,0,0,1-.62.64.65.65,0,0,1-.64-.64V4.89a1.23,1.23,0,0,0-1.25-1.21,1.19,1.19,0,0,0-1.19,1.21V7.76a.19.19,0,0,1,0,.12.65.65,0,0,1-.63.52A.64.64,0,0,1,37,7.76V3a.64.64,0,0,1,1.22-.26,2.39,2.39,0,0,1,1.27-.37A2.51,2.51,0,0,1,42,4.89Z"></path>
    <path d="M47.07,3.06a.67.67,0,0,1-.67.66h-.3V7.06a.66.66,0,0,1,.66.68.65.65,0,0,1-.66.66,1.34,1.34,0,0,1-1.33-1.34V3.72h-.35a.66.66,0,1,1,0-1.32h.35V.66A.66.66,0,0,1,45.44,0a.65.65,0,0,1,.66.66V2.4h.3A.67.67,0,0,1,47.07,3.06Z"></path>
    <path d="M22.81,9.4a2.35,2.35,0,0,1-2.28-1.76.34.34,0,0,1,0-.26.26.26,0,0,1,.23-.1h4a.25.25,0,0,1,.23.1.31.31,0,0,1,.06.26A2.36,2.36,0,0,1,22.81,9.4Z"></path>
    <path d="M24.68,2.77h0a2.13,2.13,0,0,0-.25,0,2.47,2.47,0,0,0-1.57.74l-.06.06-.07-.06a2.45,2.45,0,0,0-1.57-.74,1.9,1.9,0,0,0-.25,0h0a2.5,2.5,0,0,0-2.49,2.52v1a.64.64,0,0,0,.63.64.65.65,0,0,0,.65-.64v-1A1.24,1.24,0,0,1,20,4.46h0l.1-.09a1.21,1.21,0,0,1,.3-.2l.06,0a1,1,0,0,1,.42-.09H21a1.23,1.23,0,0,1,1.15,1.19v.52a.62.62,0,0,0,.22.46.6.6,0,0,0,.43.18h0a.6.6,0,0,0,.42-.18.62.62,0,0,0,.22-.46V5.26A1.24,1.24,0,0,1,24.6,4.07h.08a1.1,1.1,0,0,1,.36.07h0a1.23,1.23,0,0,1,.85,1.16v1a.65.65,0,0,0,.65.64.64.64,0,0,0,.63-.64v-1A2.5,2.5,0,0,0,24.68,2.77Z"></path>
  </g>
</svg>
