<svg height="512" viewBox="0 0 24 24" width="512" xmlns="http://www.w3.org/2000/svg"><g id="Layer_2" data-name="Layer 2"><path d="m12 22.60742a1.745 1.745 0 0 1 -.85059-.22217l-3.37011-1.87207a10.75689 10.75689 0 0 1 -5.5293-9.397v-5.19577a1.74674 1.74674 0 0 1 1.56836-1.73877 17.30282 17.30282 0 0 0 3.93164-.88864 17.32845 17.32845 0 0 0 3.33594-1.59766 1.75141 1.75141 0 0 1 1.82812.00049 17.35532 17.35532 0 0 0 3.33594 1.59717 17.30282 17.30282 0 0 0 3.93164.88867 1.74674 1.74674 0 0 1 1.56836 1.73874v5.1958a10.75689 10.75689 0 0 1 -5.5293 9.397l-3.37109 1.87256a1.74335 1.74335 0 0 1 -.84961.22165zm0-19.6709a.23875.23875 0 0 0 -.125.03467v.00049a18.8629 18.8629 0 0 1 -3.625 1.73532 18.77067 18.77067 0 0 1 -4.27344.96582.248.248 0 0 0 -.22656.24759v5.1958a9.25477 9.25477 0 0 0 4.75781 8.08545l3.3711 1.87256a.24669.24669 0 0 0 .24121.00049l3.37207-1.873a9.25477 9.25477 0 0 0 4.75781-8.0855v-5.1958a.248.248 0 0 0 -.22656-.24756 18.77067 18.77067 0 0 1 -4.27344-.96585 18.8629 18.8629 0 0 1 -3.625-1.73535.23477.23477 0 0 0 -.125-.03513z"/><path d="m11.5 14.25a.74606.74606 0 0 1 -.498-.18945l-2.25-2a.74985.74985 0 0 1 .9961-1.1211l1.7041 1.51465 3.251-3.46728a.75.75 0 1 1 1.09375 1.02636l-3.75 4a.74725.74725 0 0 1 -.54695.23682z"/></g></svg>