<?xml version="1.0"?>
<svg xmlns="http://www.w3.org/2000/svg" viewBox="0 0 32 32"><g id="Layer"><path d="M27.42,15.46A8.26,8.26,0,0,0,25,13.76,5.5,5.5,0,1,0,16.21,8h-.42A5.5,5.5,0,1,0,7,13.76a8.32,8.32,0,0,0-4.88,7.6A2.64,2.64,0,0,0,4.77,24h3a7.64,7.64,0,0,0-.12,1.36A2.64,2.64,0,0,0,10.27,28H21.73a2.64,2.64,0,0,0,2.63-2.64A7.64,7.64,0,0,0,24.24,24h3a2.64,2.64,0,0,0,2.63-2.64A8.3,8.3,0,0,0,27.42,15.46ZM21.5,6a3.5,3.5,0,0,1,0,7h0a5.49,5.49,0,0,0-3.3-4.55A3.52,3.52,0,0,1,21.5,6Zm-2,7.5A3.5,3.5,0,1,1,16,10,3.5,3.5,0,0,1,19.5,13.5ZM7,9.5a3.49,3.49,0,0,1,6.83-1.05A5.49,5.49,0,0,0,10.53,13h0A3.5,3.5,0,0,1,7,9.5ZM4.77,22a.64.64,0,0,1-.63-.64A6.35,6.35,0,0,1,10.5,15h.22a5.49,5.49,0,0,0,1.81,2.75A8.46,8.46,0,0,0,8.35,22Zm17,4H10.27a.64.64,0,0,1-.63-.64,6.36,6.36,0,0,1,12.72,0A.64.64,0,0,1,21.73,26Zm5.5-4H23.65a8.46,8.46,0,0,0-4.18-4.24A5.49,5.49,0,0,0,21.28,15h.22a6.37,6.37,0,0,1,6.36,6.36A.64.64,0,0,1,27.23,22Z"/></g></svg>
